<svg viewBox="0 0 512 512" xmlns="http://www.w3.org/2000/svg" fill-rule="evenodd" clip-rule="evenodd" stroke-linejoin="round" stroke-miterlimit="2"><path d="M344.95 188.357c-.041 26.442-21.809 48.177-48.25 48.177h-.296c-26.441 0-48.21-21.735-48.25-48.177.06-26.427 21.823-48.14 48.25-48.14h.295c26.427 0 48.192 21.713 48.25 48.14z" fill="#ffc131" fill-rule="nonzero"/><path d="M263.845 323.679c-.06 26.427-21.823 48.14-48.25 48.14H215.262c-26.427 0-48.191-21.713-48.25-48.14.04-26.442 21.808-48.177 48.25-48.177H215.594c26.442 0 48.21 21.735 48.25 48.177z" fill="#24c8db" fill-rule="nonzero"/><path d="M178.541 145.005C95.005 162.022 32.17 235.54 32.17 323.642c0 100.736 82.062 182.357 183.277 182.357 79.83.107 150.968-51.97 174.99-128.103a213.161 213.161 0 01-70.092 20.442c-24.254 33.72-63.362 53.723-104.898 53.665h-.331c-70.453 0-128.475-57.871-128.656-128.324.074-53.842 33.993-102.177 84.604-120.552-2.03-19.69.53-39.588 7.477-58.122z" fill="#24c8db" fill-rule="nonzero"/><path d="M333.458 367.03c83.499-16.98 146.371-90.533 146.371-178.636C479.83 87.62 397.767 6 296.552 6c-79.842-.1-150.983 51.993-174.99 128.14a213.161 213.161 0 0170.091-20.442c24.258-33.713 63.363-53.72 104.899-53.665h.331c70.453 0 128.475 57.871 128.656 128.324-.074 53.841-33.993 102.176-84.604 120.552 2.03 19.69-.53 39.587-7.477 58.121z" fill="#ffc131"/></svg>