<svg width="16" height="16" viewBox="0 0 16 16" fill="none" xmlns="http://www.w3.org/2000/svg">
<path d="M4.30709 0C4.47031 0 4.62684 0.0648349 4.74226 0.180242C4.85767 0.295649 4.92251 0.452174 4.92251 0.615385V0.822974C5.20423 0.820786 5.5103 0.819966 5.84071 0.820513H10.1585C10.4889 0.820513 10.7949 0.821333 11.0767 0.822974V0.615385C11.0767 0.452174 11.1415 0.295649 11.2569 0.180242C11.3723 0.0648349 11.5289 0 11.6921 0C11.8553 0 12.0118 0.0648349 12.1273 0.180242C12.2427 0.295649 12.3075 0.452174 12.3075 0.615385V0.862359C12.3173 0.862359 12.3269 0.863179 12.3362 0.86482C12.9188 0.909128 13.4103 1.00349 13.8592 1.21928C14.5849 1.56462 15.1831 2.13032 15.5684 2.83569C15.8039 3.27221 15.9048 3.74892 15.9532 4.30687C16 4.85005 16 5.52287 16 6.36636V10.4533C16 11.2976 16 11.9713 15.9532 12.5136C15.904 13.0716 15.8039 13.5483 15.5684 13.984C15.1833 14.6897 14.5851 15.2557 13.8592 15.6012C13.4103 15.817 12.9188 15.9114 12.3362 15.9557C11.7651 16 11.0562 16 10.1585 16H5.84153C4.94384 16 4.23488 16 3.66378 15.9557C3.08118 15.9106 2.58967 15.817 2.14083 15.6012C1.41505 15.2559 0.816872 14.6902 0.431612 13.9848C0.196113 13.5483 0.0951845 13.0716 0.0467718 12.5136C1.31443e-07 11.9705 0 11.2976 0 10.4542V6.36718C0 5.52287 1.31443e-07 4.84923 0.0467718 4.30687C0.096005 3.74892 0.196113 3.27221 0.431612 2.83651C0.816735 2.13084 1.41493 1.56484 2.14083 1.21928C2.58967 1.00349 3.08118 0.909128 3.66378 0.86482L3.69168 0.861538V0.615385C3.69168 0.452174 3.75651 0.295649 3.87193 0.180242C3.98734 0.0648349 4.14387 0 4.30709 0ZM3.69168 2.09723C3.21822 2.13826 2.91543 2.2121 2.67419 2.32862C2.18219 2.56117 1.77615 2.94307 1.51392 3.4199C1.42038 3.59385 1.35309 3.80226 1.30878 4.10256H14.6912C14.6461 3.80226 14.5788 3.59385 14.4853 3.42072C14.2234 2.94371 13.8176 2.56153 13.3258 2.32862C13.0837 2.2121 12.781 2.13826 12.3075 2.09723V2.25641C12.3075 2.41962 12.2427 2.57615 12.1273 2.69155C12.0118 2.80696 11.8553 2.87179 11.6921 2.87179C11.5289 2.87179 11.3723 2.80696 11.2569 2.69155C11.1415 2.57615 11.0767 2.41962 11.0767 2.25641V2.05374C10.7971 2.05156 10.4826 2.05073 10.133 2.05128H5.86615C5.51659 2.05128 5.20204 2.0521 4.92251 2.05374V2.25641C4.92251 2.41962 4.85767 2.57615 4.74226 2.69155C4.62684 2.80696 4.47031 2.87179 4.30709 2.87179C4.14387 2.87179 3.98734 2.80696 3.87193 2.69155C3.75651 2.57615 3.69168 2.41962 3.69168 2.25641V2.09723Z" fill="white"/>
<path d="M7.47727 12.4034V6.77841H8.43182V12.4034H7.47727ZM5.14205 10.0682V9.11364H10.767V10.0682H5.14205Z" fill="black"/>
</svg>
