<svg width="16" height="16" viewBox="0 0 16 16" fill="none" xmlns="http://www.w3.org/2000/svg">
<path d="M13.3333 0C14.0406 0 14.7189 0.280952 15.219 0.781049C15.719 1.28115 16 1.95942 16 2.66667V13.3333C16 14.0406 15.719 14.7189 15.219 15.219C14.7189 15.719 14.0406 16 13.3333 16H2.66667C1.95942 16 1.28115 15.719 0.781049 15.219C0.280952 14.7189 0 14.0406 0 13.3333V2.66667C0 1.95942 0.280952 1.28115 0.781049 0.781049C1.28115 0.280952 1.95942 0 2.66667 0H13.3333ZM11.2951 5.59378C11.1284 5.42714 10.9024 5.33352 10.6667 5.33352C10.431 5.33352 10.2049 5.42714 10.0382 5.59378L8 7.63111L6.85067 6.48267C6.68398 6.31603 6.45792 6.22241 6.22222 6.22241C5.98652 6.22241 5.76047 6.31603 5.59378 6.48267L2.92711 9.14933C2.76047 9.31602 2.66686 9.54208 2.66686 9.77778C2.66686 10.0135 2.76047 10.2395 2.92711 10.4062L3.01067 10.48C3.18169 10.6127 3.39525 10.6784 3.61127 10.6648C3.8273 10.6512 4.03094 10.5593 4.184 10.4062L6.22222 8.36889L7.37156 9.51733L7.45511 9.59111C7.62614 9.72378 7.83969 9.78948 8.05572 9.7759C8.27174 9.76232 8.47538 9.67038 8.62844 9.51733L10.6667 7.48L11.816 8.62844C11.9836 8.79036 12.2082 8.87996 12.4412 8.87793C12.6743 8.87591 12.8973 8.78242 13.0621 8.61762C13.2269 8.45281 13.3204 8.22987 13.3224 7.9968C13.3244 7.76374 13.2348 7.5392 13.0729 7.37156L11.2951 5.59378Z" fill="white"/>
</svg>
