<svg width="16" height="16" viewBox="0 0 16 16" fill="none" xmlns="http://www.w3.org/2000/svg">
<path d="M15.36 0H0.64C0.286 0 0 0.286 0 0.64V15.36C0 15.714 0.286 16 0.64 16H15.36C15.714 16 16 15.714 16 15.36V0.64C16 0.286 15.714 0 15.36 0ZM8.022 8.122L4.182 11.342C4.078 11.43 3.92 11.356 3.92 11.22V9.966C3.92 9.92 3.942 9.874 3.978 9.844L6.174 8L3.978 6.156C3.95962 6.14148 3.94482 6.12292 3.93476 6.10177C3.92471 6.08061 3.91965 6.05742 3.92 6.034V4.78C3.92 4.644 4.078 4.57 4.182 4.658L8.022 7.876C8.1 7.94 8.1 8.058 8.022 8.122ZM12.08 11.22C12.08 11.308 12.012 11.38 11.93 11.38H8.23C8.148 11.38 8.08 11.308 8.08 11.22V10.26C8.08 10.172 8.148 10.1 8.23 10.1H11.93C12.012 10.1 12.08 10.172 12.08 10.26V11.22Z" fill="white"/>
</svg>
