<svg width="14" height="18" viewBox="0 0 14 18" fill="none" xmlns="http://www.w3.org/2000/svg">
<path d="M7 3.5C7.92826 3.5 8.8185 3.86875 9.47487 4.52513C10.1313 5.1815 10.5 6.07174 10.5 7V16.625C10.4999 16.7797 10.4587 16.9317 10.3807 17.0653C10.3027 17.199 10.1907 17.3096 10.056 17.3858C9.92137 17.462 9.7689 17.5012 9.61417 17.4992C9.45944 17.4973 9.30799 17.4544 9.17525 17.3749L5.25 15.0203L1.32475 17.3749C1.19927 17.4502 1.0569 17.4928 0.910677 17.4989C0.764456 17.5049 0.619052 17.4742 0.487776 17.4095C0.356499 17.3448 0.243542 17.2483 0.159244 17.1286C0.0749457 17.009 0.021999 16.8701 0.00525004 16.7248L0 16.625V7C0 6.07174 0.368749 5.1815 1.02513 4.52513C1.6815 3.86875 2.57174 3.5 3.5 3.5H7Z" fill="white"/>
<path d="M10.5 0C11.4283 0 12.3185 0.368749 12.9749 1.02513C13.6313 1.6815 14 2.57174 14 3.5V13.125C14 13.3571 13.9078 13.5796 13.7437 13.7437C13.5796 13.9078 13.3571 14 13.125 14C12.8929 14 12.6704 13.9078 12.5063 13.7437C12.3422 13.5796 12.25 13.3571 12.25 13.125V3.5C12.25 3.03587 12.0656 2.59075 11.7374 2.26256C11.4092 1.93437 10.9641 1.75 10.5 1.75H6.125C5.89294 1.75 5.67038 1.65781 5.50628 1.49372C5.34219 1.32962 5.25 1.10706 5.25 0.875C5.25 0.642936 5.34219 0.420376 5.50628 0.256282C5.67038 0.0921872 5.89294 0 6.125 0H10.5Z" fill="white"/>
</svg>
