<svg width="16" height="16" viewBox="0 0 16 16" fill="none" xmlns="http://www.w3.org/2000/svg">
<path d="M0 1.55556C0 1.143 0.168571 0.747335 0.468629 0.455612C0.768687 0.163888 1.17565 0 1.6 0H6.016C6.25581 2.90871e-05 6.49255 0.0524679 6.70871 0.153439C6.92487 0.254409 7.11492 0.401329 7.2648 0.583333L8.3848 1.94444H14.4C14.8243 1.94444 15.2313 2.10833 15.5314 2.40006C15.8314 2.69178 16 3.08744 16 3.5V12.4444C16 12.857 15.8314 13.2527 15.5314 13.5444C15.2313 13.8361 14.8243 14 14.4 14H1.6C1.17565 14 0.768687 13.8361 0.468629 13.5444C0.168571 13.2527 0 12.857 0 12.4444V1.55556Z" fill="white"/>
<path d="M7.16335 10.5028V5.81534H7.95881V10.5028H7.16335ZM5.21733 8.55682V7.76136H9.90483V8.55682H5.21733Z" fill="black"/>
</svg>
