<svg width="16" height="16" viewBox="0 0 16 16" fill="none" xmlns="http://www.w3.org/2000/svg">
<path d="M2.08 0C1.52835 0 0.999294 0.219142 0.609218 0.609218C0.219142 0.999294 0 1.52835 0 2.08V5.12C0 5.67165 0.219142 6.20071 0.609218 6.59078C0.999294 6.98086 1.52835 7.2 2.08 7.2H5.12C5.67165 7.2 6.20071 6.98086 6.59078 6.59078C6.98086 6.20071 7.2 5.67165 7.2 5.12V2.08C7.2 1.52835 6.98086 0.999294 6.59078 0.609218C6.20071 0.219142 5.67165 0 5.12 0H2.08ZM10.88 0C10.3284 0 9.79929 0.219142 9.40922 0.609218C9.01914 0.999294 8.8 1.52835 8.8 2.08V5.12C8.8 5.67165 9.01914 6.20071 9.40922 6.59078C9.79929 6.98086 10.3284 7.2 10.88 7.2H13.92C14.4717 7.2 15.0007 6.98086 15.3908 6.59078C15.7809 6.20071 16 5.67165 16 5.12V2.08C16 1.52835 15.7809 0.999294 15.3908 0.609218C15.0007 0.219142 14.4717 0 13.92 0H10.88ZM2.08 8.8C1.52835 8.8 0.999294 9.01914 0.609218 9.40922C0.219142 9.79929 0 10.3284 0 10.88V13.92C0 14.4717 0.219142 15.0007 0.609218 15.3908C0.999294 15.7809 1.52835 16 2.08 16H5.12C5.67165 16 6.20071 15.7809 6.59078 15.3908C6.98086 15.0007 7.2 14.4717 7.2 13.92V10.88C7.2 10.3284 6.98086 9.79929 6.59078 9.40922C6.20071 9.01914 5.67165 8.8 5.12 8.8H2.08ZM11.6832 10.0064C11.9216 9.3088 12.9512 9.332 13.1376 10.0752L13.4544 11.344L14.7248 11.6632C15.4928 11.8552 15.4928 12.9456 14.7248 13.1376L13.4544 13.4544L13.1376 14.7248C12.9456 15.4928 11.8552 15.4928 11.6632 14.7248L11.344 13.4544L10.0752 13.1376C9.3072 12.9456 9.3072 11.8552 10.0752 11.6632L11.3448 11.3448L11.6632 10.0752L11.6832 10.0064ZM12.4 12.0184C12.3238 12.188 12.188 12.3238 12.0184 12.4C12.1879 12.476 12.3236 12.6115 12.4 12.7808C12.4762 12.6116 12.6116 12.4762 12.7808 12.4C12.6115 12.3236 12.476 12.1879 12.4 12.0184Z" fill="white"/>
</svg>
