<svg width="13" height="13" viewBox="0 0 13 13" fill="none" xmlns="http://www.w3.org/2000/svg">
<path d="M5.23611 0H2.34722C1.7247 0 1.12767 0.247296 0.687485 0.687485C0.247296 1.12767 0 1.7247 0 2.34722V3.79167C0 3.93533 0.0570682 4.0731 0.15865 4.17468C0.260233 4.27626 0.398008 4.33333 0.541667 4.33333C0.685326 4.33333 0.823101 4.27626 0.924683 4.17468C1.02627 4.0731 1.08333 3.93533 1.08333 3.79167V2.34722C1.08333 1.64956 1.64956 1.08333 2.34722 1.08333H5.23611C5.37977 1.08333 5.51754 1.02627 5.61913 0.924683C5.72071 0.823101 5.77778 0.685326 5.77778 0.541667C5.77778 0.398008 5.72071 0.260233 5.61913 0.15865C5.51754 0.0570682 5.37977 0 5.23611 0ZM5.59722 13C5.90546 13 6.21069 12.9393 6.49547 12.8213C6.78024 12.7034 7.039 12.5305 7.25696 12.3125C7.47492 12.0946 7.64781 11.8358 7.76577 11.551C7.88373 11.2662 7.94444 10.961 7.94444 10.6528V7.40278C7.94444 7.09454 7.88373 6.78931 7.76577 6.50453C7.64781 6.21976 7.47492 5.961 7.25696 5.74304C7.039 5.52508 6.78024 5.35219 6.49547 5.23423C6.21069 5.11627 5.90546 5.05556 5.59722 5.05556H2.34722C1.7247 5.05556 1.12767 5.30285 0.687485 5.74304C0.247296 6.18323 0 6.78026 0 7.40278V10.6528C0 11.2753 0.247296 11.8723 0.687485 12.3125C1.12767 12.7527 1.7247 13 2.34722 13H5.59722ZM9.20833 13C9.06467 13 8.9269 12.9429 8.82532 12.8413C8.72374 12.7398 8.66667 12.602 8.66667 12.4583C8.66667 12.3147 8.72374 12.1769 8.82532 12.0753C8.9269 11.9737 9.06467 11.9167 9.20833 11.9167H10.6528C10.988 11.9167 11.3095 11.7835 11.5465 11.5465C11.7835 11.3095 11.9167 10.988 11.9167 10.6528V7.76389C11.9167 7.62023 11.9737 7.48246 12.0753 7.38087C12.1769 7.27929 12.3147 7.22222 12.4583 7.22222C12.602 7.22222 12.7398 7.27929 12.8413 7.38087C12.9429 7.48246 13 7.62023 13 7.76389V10.6528C13 11.2753 12.7527 11.8723 12.3125 12.3125C11.8723 12.7527 11.2753 13 10.6528 13H9.20833ZM13 5.23611V2.34722C13 1.7247 12.7527 1.12767 12.3125 0.687485C11.8723 0.247296 11.2753 0 10.6528 0H7.76389C7.62023 0 7.48246 0.0570682 7.38087 0.15865C7.27929 0.260233 7.22222 0.398008 7.22222 0.541667C7.22222 0.685326 7.27929 0.823101 7.38087 0.924683C7.48246 1.02627 7.62023 1.08333 7.76389 1.08333H10.6528C11.3504 1.08333 11.9167 1.64956 11.9167 2.34722V5.23611C11.9167 5.37977 11.9737 5.51754 12.0753 5.61913C12.1769 5.72071 12.3147 5.77778 12.4583 5.77778C12.602 5.77778 12.7398 5.72071 12.8413 5.61913C12.9429 5.51754 13 5.37977 13 5.23611Z" fill="white"/>
</svg>
