<svg width="9" height="18" viewBox="0 0 9 18" fill="none" xmlns="http://www.w3.org/2000/svg">
<path d="M7.65688 7H1.34311C1.09385 7.00038 0.849586 6.92685 0.638586 6.78793C0.427587 6.649 0.258482 6.45037 0.150846 6.21501C0.0248465 5.93575 -0.0236834 5.62506 0.0107866 5.31834C0.0452565 5.01162 0.16134 4.7212 0.345809 4.48018L3.50269 0.47673C3.62658 0.327088 3.77975 0.207074 3.95182 0.124821C4.12389 0.0425687 4.31084 0 4.5 0C4.68916 0 4.87611 0.0425687 5.04818 0.124821C5.22025 0.207074 5.37342 0.327088 5.49731 0.47673L8.65419 4.48018C8.83866 4.7212 8.95474 5.01162 8.98921 5.31834C9.02368 5.62506 8.97515 5.93575 8.84915 6.21501C8.74152 6.45037 8.57241 6.649 8.36141 6.78793C8.15041 6.92685 7.90615 7.00038 7.65688 7Z" fill="white"/>
<path d="M1.34312 11H7.65689C7.90615 10.9996 8.15041 11.0732 8.36141 11.2121C8.57241 11.351 8.74152 11.5496 8.84915 11.785C8.97515 12.0642 9.02368 12.3749 8.98921 12.6817C8.95474 12.9884 8.83866 13.2788 8.65419 13.5198L5.49731 17.5233C5.37342 17.6729 5.22025 17.7929 5.04818 17.8752C4.87611 17.9574 4.68916 18 4.5 18C4.31084 18 4.12389 17.9574 3.95182 17.8752C3.77975 17.7929 3.62658 17.6729 3.50269 17.5233L0.345808 13.5198C0.16134 13.2788 0.0452566 12.9884 0.0107861 12.6817C-0.0236835 12.3749 0.024848 12.0642 0.150847 11.785C0.258483 11.5496 0.427588 11.351 0.638587 11.2121C0.849586 11.0732 1.09385 10.9996 1.34312 11Z" fill="white"/>
</svg>
